<?xml version="1.0" encoding="UTF-8"?>
<svg
     version="1.1"
     xmlns="http://www.w3.org/2000/svg"
     xmlns:dc="http://purl.org/dc/elements/1.1/"
     xmlns:cc="http://creativecommons.org/ns#"
     xmlns:rdf="http://www.w3.org/1999/02/22-rdf-syntax-ns#"
     viewBox="0 0 1530.6075 202.76428">
  <title>chirpingmustard.com logo</title>
  <metadata>
    <rdf:RDF>
      <cc:Work rdf:about="">
        <dc:format>image/svg+xml</dc:format>
        <dc:type rdf:resource="http://purl.org/dc/dcmitype/StillImage" />
        <dc:title>chirpingmustard.com logo</dc:title>
        <dc:creator>
          <cc:Agent>
            <dc:title>Owen Evans</dc:title>
          </cc:Agent>
        </dc:creator>
        <dc:creator>
          <cc:Agent>
            <dc:title>Aluísio Augusto Silva Gonçalves</dc:title>
          </cc:Agent>
        </dc:creator>
        <dc:date>2014-01-21</dc:date>
      </cc:Work>
    </rdf:RDF>
  </metadata>
  <defs>
    <linearGradient
                     id="tomatoGradient"
                     x1="1542.3239"
                     y1="97.691124"
                     x2="403.40588"
                     y2="97.691124"
                     gradientUnits="userSpaceOnUse">
      <stop stop-color="#ceb301" stop-opacity="1" offset="0" />
      <stop stop-color="#ceb301" stop-opacity="0" offset="1" />
    </linearGradient>
    <linearGradient
                    id="mustardGradient"
                    x1="-5.6289191"
                    y1="108.94896"
                    x2="1146.7227"
                    y2="108.94896"
                    gradientUnits="userSpaceOnUse">
      <stop stop-color="#ef4026" stop-opacity="1" offset="0" />
      <stop stop-color="#ef4026" stop-opacity="0" offset="1" />
    </linearGradient>
  </defs>
  <path
        id="blackText"
        style="fill: #000000;"
        d="m 1292.1932,202.76428 c -20.693,-45.19723 61.9336,-15.60225 0,0 z m -253.75,-4.15836 c -8.1699,-28.10849 44.6759,-35.68384 20.25,-6.9288 -7.7207,8.76834 -12.2747,4.59052 -20.25,6.9288 z M 731.70964,180.83226 C 715.28886,139.66628 684.16553,207.54188 650.14419,171.99894 627.92342,146.11923 631.32718,98.621801 643.373,74.961391 661.71624,51.516 692.40357,41.909062 718.91141,37.449773 c 38.3526,-4.252518 26.03358,44.164038 -7.23944,24.883194 -38.89068,0.05958 -63.64278,46.980303 -45.97872,78.668173 21.55767,26.90464 36.83678,-26.79018 29.34134,-42.708459 24.41324,-22.13245 31.91911,29.446379 42.05467,45.217609 36.4484,-20.06517 -2.32729,-109.426919 55.12231,-126.278519 18.45731,20.39278 22.34725,20.564454 42.8084,2.776595 55.13627,-14.1279537 71.36371,53.049295 55.20201,92.852214 -2.97149,21.47824 -37.0477,39.40052 -60.75031,45.5382 -23.5312,17.65094 -69.69887,-22.55511 -24.57621,-22.19268 38.58444,9.44045 74.60601,-32.62937 62.3435,-68.994335 -5.60206,-38.859051 -54.5165,4.040566 -28.19127,30.266046 -23.55652,30.050589 -37.02004,-18.11963 -43.72477,-36.993888 -39.73791,-2.121671 -1.7317,101.378237 -51.74651,119.960767 l -6.67067,2.16394 -5.1961,-1.77637 0,0 z m -263.66063,-1.89624 c -38.26569,-20.97058 30.51432,-45.51641 -4.45576,-77.33293 -14.50318,-24.468529 4.07473,-52.985658 16.36431,-63.049093 25.54843,-18.84352 28.92072,20.938453 6.73569,31.543084 -8.03002,27.82763 23.46099,48.730099 6.4703,78.424389 -3.24561,10.73502 -11.20997,37.92356 -25.11454,30.41455 z M 481.69325,40.152374 c -3.06815,-3.545062 -0.58933,4.928059 0,0 z M 50.193247,179.55571 C 10.021942,174.50402 -11.385198,119.6748 6.2071362,85.054641 11.778744,72.489611 16.929564,60.550922 30.115753,49.711391 29.450689,44.484701 49.115521,35.914109 61.861777,36.920014 82.847357,60.709013 36.511712,54.479804 34.693247,74.211391 18.90388,99.498531 22.309716,153.65447 58.508699,157.12366 c 12.959428,-0.23261 7.013118,32.32661 -8.315452,22.43205 z M 30.186168,79.722841 c -2.530777,-1.82881 -3.981218,3.22138 0,0 z M 90.634767,178.74248 C 51.166766,168.17953 88.206637,97.400551 73.873807,62.235335 c -7.36568,-52.5599607 42.124023,-7.656864 22.88894,23.363696 -3.67349,27.238909 22.413463,1.66866 36.913103,1.13293 35.6037,6.99583 50.26532,-10.56828 16.53134,-34.654283 -28.99989,-41.277154 36.6365,-11.044625 42.04432,12.734668 -1.04014,6.888615 32.05407,-70.0775107 35.3051,-19.600787 -17.545,30.821322 -19.71736,70.784561 -7.88456,103.213701 20.86926,31.25722 -12.62123,30.24264 -25.38603,7.05478 -20.10707,42.43842 -86.62576,14.14099 -67.41293,-29.76865 -4.91126,-22.96217 50.49239,-27.882369 25.66892,-10.36108 -31.98269,12.94516 1.47685,65.1461 24.15124,36.52222 29.22393,-39.61435 -37.50611,-75.940609 -65.37905,-43.85578 -25.032573,17.10128 -6.91298,54.65053 -20.679433,70.72573 z M 192.69325,69.711391 c -2.46629,-3.562285 -1.20936,3.65615 0,0 z M 365.02264,174.82653 c -40.03866,-6.08864 -14.25105,-43.9492 17.17061,-25.61514 -2.47044,-36.20255 7.19609,-78.401869 -21.01095,-106.482285 -10.71824,-15.860137 25.82709,-3.972252 23.45761,-11.038851 16.60853,-0.201721 49.3427,-6.59742 54.75519,20.65262 11.84869,29.618097 -7.97257,64.087196 -35.15478,66.444676 -12.66493,37.98718 10.13732,31.16125 33.46389,20.5348 12.60639,45.68883 -45.45604,33.05809 -72.68157,35.50418 z m 47.98603,-76.413799 c 31.0444,-12.10088 1.89477,-66.092801 -15.277,-44.626036 9.07105,11.017706 -6.34545,48.125425 15.277,44.626036 z M 257.21635,172.73692 c -25.96458,-23.21682 -6.04158,-65.0003 -16.35292,-95.847409 -9.62628,-21.364058 -4.72487,-58.238054 19.66603,-47.286873 5.84309,30.888569 39.67883,-21.5903767 62.11812,0.697375 43.14147,22.479891 22.28672,84.490897 -13.87136,103.411377 -1.84543,14.7895 41.82378,15.17035 22.45491,37.21625 -27.70953,-13.25584 -47.74402,-29.0538 -70.13289,3.78001 l -3.88189,-1.97073 0,0 z m 26.31023,-42.01022 c 5.44486,-2.88709 32.55945,-21.3969 33.14042,-38.350129 15.79265,-53.517547 -50.49706,-52.714944 -46.58078,-5.46513 3.59676,12.83442 1.4675,39.120439 13.44036,43.815259 z m 58.83334,-73.47132 c -2.5569,-3.463457 -0.21437,4.552446 0,0 z M 526.44903,171.931 C 517.22143,138.03942 540.00484,98.511731 515.21146,62.768924 490.38707,45.292662 529.74952,18.830328 535.57792,43.914 c 4.2469,20.879399 17.11756,-7.034081 32.99025,-3.21678 14.51819,-10.364233 32.86128,5.238513 40.73913,16.450787 11.68175,18.856374 15.21021,52.380413 15.51759,78.644743 7.46582,50.00244 -45.89721,31.69352 -23.29832,-2.47835 1.68754,-16.09462 7.00518,-50.059869 -15.59455,-64.494059 -40.13056,-16.538342 -39.1085,57.667579 -36.3696,74.310219 6.53813,16.79319 -4.80783,34.99834 -23.11339,28.80044 z m 92.74422,-10.21961 c -1.20936,-3.65615 -2.46629,3.56228 0,0 z m 596.99995,9.9672 c -49.0723,-10.38547 -38.4967,-78.135789 -3.9221,-100.200709 30.1672,-18.339635 -33.2176,-16.446742 -17.0324,-41.04588 25.4459,-2.739787 48.6821,37.90726 67.3352,-3.40602 35.7396,-0.08475 18.4872,53.65369 23.6092,78.439709 3.7619,22.37183 17.0014,72.20437 -14.4107,65.4367 -8.5853,-30.65655 -31.8256,12.12718 -55.5789,0.77622 l -3e-4,-2e-5 z m 17.6158,-20.70192 c 35.5832,-12.12224 28.7971,-62.774259 12.1339,-82.280589 -5.6028,2.84651 -32.5841,21.40171 -33.2237,38.350129 -1.8302,11.06863 2.8689,51.9569 21.0898,43.93046 z m -45.6585,-8.19618 c 0.01,-4.63536 -2.6904,3.2675 0,0 z m 122.5427,29.1182 c -20.1021,-22.36876 20.0743,-66.3338 5.2235,-100.049159 -0.3083,-14.333475 -29.5515,-59.54497 3.6973,-42.775479 16.4317,38.755629 56.9708,-44.053706 79.5792,10.637339 14.4569,20.578902 1.9418,51.62031 -18.1316,55.78154 -34.7328,-3.03827 31.4357,-22.86415 5.0188,-47.599904 -49.2284,-35.882322 -53.5343,66.487183 -0.7601,55.087533 33.6049,2.51149 52.3894,-30.463079 48.6949,-59.983812 -11.0772,-42.09553368 42.6169,-16.140794 20.7307,14.72411 -11.5966,29.112753 22.7028,104.494982 -15.7786,102.768452 -19.6609,-15.18531 11.489,-79.335859 -28.8693,-52.6275 -15.7085,12.20858 -63.3126,-5.93911 -47.5732,19.84958 23.1469,13.28764 38.1922,59.58953 -0.782,34.21497 -16.6651,-16.48314 -32.9796,-53.143 -35.053,-5.50015 -3.1878,5.91498 -8.2342,15.77666 -15.9966,15.47248 z m 28,-41.62828 c -2.3337,-3.43479 -2.8802,1.90558 0,0 z m -190.9054,39.69098 c -11.9098,-7.76101 -48.2464,8.81608 -56.0793,-18.25 -13.3189,-24.62643 0.6742,-55.067909 17.792,-67.239179 35.8559,-0.11789 14.6912,-58.312821 -13.6408,-23.269464 -24.4001,-43.438467 53.2939,-38.195962 81.8335,-35.922417 34.2996,46.216451 -35.7899,8.262535 -30.0797,36.931061 -1.6926,35.06073 -1.8354,72.238579 23.1119,99.019929 2.2348,12.76778 -21.0663,10.14901 -22.9376,8.73007 z m -14.0946,-20.00292 c -7.189,-16.71754 -1.7347,-71.836619 -28.8836,-37.6737 -5.9502,18.59448 2.7113,44.58174 28.8836,37.6737 z m -101.5,16.34052 c -23.204,-22.2468 22.8504,-30.46986 12.0092,-55.93555 -18.6768,-27.245679 -14.5473,-70.928679 12.7748,-92.652049 46.9584,19.964998 -22.2303,41.898301 6.122,74 16.0718,22.371059 3.1859,59.223569 -12.9325,66.870429 -3.2123,4.21878 -10.9747,10.68109 -17.9735,7.71717 z m 16.9573,-6.5185 c -0.3651,-4.92516 -3.1875,3.32686 0,0 z m -47.4524,5.93391 c -6.99845,-11.45225 -14.91605,-25.81432 -25.73125,-10.72824 -14.2838,5.86117 -37.21003,13.36113 -48.05015,-5.1001 -16.2683,-9.94841 -15.065,-30.21128 -20.79776,-50.294899 -19.22807,-32.047417 23.82141,-107.8098907 24.24994,-39.496337 -6.77914,10.521737 -5.96603,27.970387 -3.81603,45.053946 21.21647,68.45286 71.0895,-8.935069 51.7496,-46.937379 -17.5872,-27.600757 41.32035,-47.51645 26.32485,-6.5 -9.23615,33.56527 -2.4422,71.659809 17.9311,100.806959 -3.5941,9.99779 -11.5602,13.70396 -21.8603,13.19605 z M 911.69325,37.711391 c -1.20936,-3.656153 -2.46629,3.562285 0,0 z M 1464.2123,160.21139 c -11.2217,-25.29598 28.7882,-15.65723 32.0838,-36.33352 23.4149,-38.981059 -7.8167,-76.387931 -31.7706,-92.562857 24.504,-38.4958837 79.2772,34.301572 63.1651,68.896377 -4.1911,20.15929 -11.0998,26.93028 -20.6923,42.0989 -8.8277,7.84025 -11.0296,16.96989 -26.1112,18.08995 -6.9974,-0.99632 -12.7989,5.12865 -16.6748,-0.18885 z m 37.0074,-41.30687 c -4.3497,1.18778 -1.9332,2.83007 0,0 z M 466.33927,27.25914 C 455.80196,13.130889 479.19233,-1.9406227 485.46247,2.3249813 502.54858,-5.4077157 478.15602,42.229738 466.33927,27.25914 z M 225.42665,21.75921 c -37.6276,-18.6750937 45.66776,-37.409729 6.2666,-0.87189 l -6.2666,0.87189 0,0 z" />
  <path
        id="tomatoText"
        style="fill: url(#tomatoGradient);"
        d="m 1294.1932,204.76428 c -20.693,-45.19723 61.9336,-15.60225 0,0 z m -253.75,-4.15836 c -8.1699,-28.10849 44.6759,-35.68384 20.25,-6.9288 -7.7207,8.76834 -12.2747,4.59052 -20.25,6.9288 z M 733.70964,182.83226 c -16.42078,-41.16598 -47.54411,26.70962 -81.56545,-8.83332 -22.22077,-25.87971 -18.81701,-73.37714 -6.77119,-97.037547 18.34324,-23.445391 49.03057,-33.052329 75.53841,-37.511618 38.3526,-4.252518 26.03358,44.164038 -7.23944,24.883194 -38.89068,0.05958 -63.64278,46.980301 -45.97872,78.668171 21.55767,26.90464 36.83678,-26.79018 29.34134,-42.70846 24.41324,-22.132447 31.91911,29.44638 42.05467,45.21761 36.4484,-20.06517 -2.32729,-109.426917 55.12231,-126.278517 18.45731,20.39278 22.34725,20.564454 42.8084,2.776595 55.13627,-14.127953 71.36371,53.049295 55.20201,92.852212 -2.97149,21.47824 -37.0477,39.40052 -60.75031,45.5382 -23.5312,17.65094 -69.69887,-22.55511 -24.57621,-22.19268 38.58444,9.44045 74.60601,-32.62937 62.3435,-68.994333 -5.60206,-38.859051 -54.5165,4.040566 -28.19127,30.266043 -23.55652,30.05059 -37.02004,-18.119627 -43.72477,-36.993885 -39.73791,-2.121671 -1.7317,101.378235 -51.74651,119.960765 l -6.67067,2.16394 -5.1961,-1.77637 0,0 z m -263.66063,-1.89624 c -38.26569,-20.97058 30.51432,-45.51641 -4.45576,-77.33293 -14.50318,-24.468527 4.07473,-52.985656 16.36431,-63.049091 25.54843,-18.84352 28.92072,20.938453 6.73569,31.543084 -8.03002,27.827627 23.46099,48.730097 6.4703,78.424387 -3.24561,10.73502 -11.20997,37.92356 -25.11454,30.41455 z M 483.69325,42.152376 c -3.06815,-3.545062 -0.58933,4.928059 0,0 z M 52.193247,181.55571 C 12.021942,176.50402 -9.385198,121.6748 8.207136,87.054643 13.778744,74.489613 18.929564,62.550924 32.115753,51.711393 31.450689,46.484703 51.115521,37.914111 63.861777,38.920016 84.847357,62.709015 38.511712,56.479806 36.693247,76.211393 20.90388,101.49853 24.309716,155.65447 60.508699,159.12366 c 12.959428,-0.23261 7.013118,32.32661 -8.315452,22.43205 z M 32.186168,81.722843 c -2.530777,-1.82881 -3.981218,3.22138 0,0 z M 92.63477,180.74248 C 53.166766,170.17953 90.206637,99.40055 75.873807,64.235337 c -7.36568,-52.55996 42.124023,-7.656864 22.888943,23.363696 -3.67349,27.238907 22.41346,1.66866 36.9131,1.13293 35.6037,6.995827 50.26532,-10.56828 16.53134,-34.654283 -28.99989,-41.277154 36.6365,-11.044625 42.04432,12.734668 -1.04014,6.888615 32.05407,-70.0775101 35.3051,-19.600787 -17.545,30.821322 -19.71736,70.784559 -7.88456,103.213699 20.86926,31.25722 -12.62123,30.24264 -25.38603,7.05478 -20.10707,42.43842 -86.62576,14.14099 -67.41293,-29.76865 -4.91126,-22.96217 50.49239,-27.88237 25.66892,-10.36108 -31.98269,12.94516 1.47685,65.1461 24.15124,36.52222 29.22393,-39.61435 -37.50611,-75.940607 -65.37905,-43.85578 -25.032573,17.10128 -6.91298,54.65053 -20.67943,70.72573 z M 194.69325,71.711393 c -2.46629,-3.562285 -1.20936,3.65615 0,0 z M 367.02264,176.82653 c -40.03866,-6.08864 -14.25105,-43.9492 17.17061,-25.61514 -2.47044,-36.20255 7.19609,-78.401867 -21.01095,-106.482283 -10.71824,-15.860137 25.82709,-3.972252 23.45761,-11.038851 16.60853,-0.201721 49.3427,-6.59742 54.75519,20.65262 11.84869,29.618097 -7.97257,64.087194 -35.15478,66.444674 -12.66493,37.98718 10.13732,31.16125 33.46389,20.5348 12.60639,45.68883 -45.45604,33.05809 -72.68157,35.50418 z m 47.98603,-76.4138 c 31.0444,-12.100877 1.89477,-66.092798 -15.277,-44.626033 9.07105,11.017706 -6.34545,48.125423 15.277,44.626033 z m -155.79232,74.32419 c -25.96458,-23.21682 -6.04158,-65.0003 -16.35292,-95.847407 -9.62628,-21.364058 -4.72487,-58.238054 19.66603,-47.286873 5.84309,30.888569 39.67883,-21.590376 62.11812,0.697375 43.14147,22.479891 22.28672,84.490895 -13.87136,103.411375 -1.84543,14.7895 41.82378,15.17035 22.45491,37.21625 -27.70953,-13.25584 -47.74402,-29.0538 -70.13289,3.78001 l -3.88189,-1.97073 0,0 z m 26.31023,-42.01022 c 5.44486,-2.88709 32.55945,-21.3969 33.14042,-38.35013 15.79265,-53.517544 -50.49706,-52.714941 -46.58078,-5.465127 3.59676,12.834417 1.4675,39.120437 13.44036,43.815257 z m 58.83334,-73.471318 c -2.5569,-3.463457 -0.21437,4.552446 0,0 z M 528.44903,173.931 c -9.2276,-33.89158 13.55581,-73.41927 -11.23757,-109.162074 -24.82439,-17.476262 14.53806,-43.938596 20.36646,-18.854924 4.2469,20.879399 17.11756,-7.034081 32.99025,-3.21678 14.51819,-10.364233 32.86128,5.238513 40.73913,16.450787 11.68175,18.856374 15.21021,52.380411 15.51759,78.644741 7.46582,50.00244 -45.89721,31.69352 -23.29832,-2.47835 1.68754,-16.09462 7.00518,-50.059867 -15.59455,-64.494057 -40.13056,-16.538342 -39.1085,57.667577 -36.3696,74.310217 6.53813,16.79319 -4.80783,34.99834 -23.11339,28.80044 z m 92.74422,-10.21961 c -1.20936,-3.65615 -2.46629,3.56228 0,0 z m 596.99995,9.9672 c -49.0723,-10.38547 -38.4967,-78.13579 -3.9221,-100.200707 30.1672,-18.339635 -33.2176,-16.446742 -17.0324,-41.04588 25.4459,-2.739787 48.6821,37.90726 67.3352,-3.40602 35.7396,-0.08475 18.4872,53.65369 23.6092,78.439707 3.7619,22.37183 17.0014,72.20437 -14.4107,65.4367 -8.5853,-30.65655 -31.8256,12.12718 -55.5789,0.77622 l -3e-4,-2e-5 z m 17.6158,-20.70192 c 35.5832,-12.12224 28.7971,-62.774257 12.1339,-82.280587 -5.6028,2.84651 -32.5841,21.401707 -33.2237,38.350127 -1.8302,11.06863 2.8689,51.9569 21.0898,43.93046 z m -45.6585,-8.19618 c 0.01,-4.63536 -2.6904,3.2675 0,0 z m 122.5427,29.1182 c -20.1021,-22.36876 20.0743,-66.3338 5.2235,-100.049157 -0.3083,-14.333475 -29.5515,-59.54497 3.6973,-42.775479 16.4317,38.755629 56.9708,-44.053706 79.5792,10.637339 14.4569,20.578902 1.9418,51.620307 -18.1316,55.781537 -34.7328,-3.03827 31.4357,-22.864147 5.0188,-47.599901 -49.2284,-35.882322 -53.5343,66.487181 -0.7601,55.087531 33.6049,2.51149 52.3894,-30.463077 48.6949,-59.98381 -11.0772,-42.095533 42.6169,-16.140794 20.7307,14.72411 -11.5966,29.112753 22.7028,104.49498 -15.7786,102.76845 -19.6609,-15.18531 11.489,-79.335857 -28.8693,-52.6275 -15.7085,12.20858 -63.3126,-5.93911 -47.5732,19.84958 23.1469,13.28764 38.1922,59.58953 -0.782,34.21497 -16.6651,-16.48314 -32.9796,-53.143 -35.053,-5.50015 -3.1878,5.91498 -8.2342,15.77666 -15.9966,15.47248 z m 28,-41.62828 c -2.3337,-3.43479 -2.8802,1.90558 0,0 z m -190.9054,39.69098 c -11.9098,-7.76101 -48.2464,8.81608 -56.0793,-18.25 -13.3189,-24.62643 0.6742,-55.06791 17.792,-67.239177 35.8559,-0.11789 14.6912,-58.312821 -13.6408,-23.269464 -24.4001,-43.438467 53.2939,-38.195962 81.8335,-35.922417 34.2996,46.216451 -35.7899,8.262535 -30.0797,36.931061 -1.6926,35.060727 -1.8354,72.238577 23.1119,99.019927 2.2348,12.76778 -21.0663,10.14901 -22.9376,8.73007 z m -14.0946,-20.00292 c -7.189,-16.71754 -1.7347,-71.836617 -28.8836,-37.6737 -5.9502,18.59448 2.7113,44.58174 28.8836,37.6737 z m -101.5,16.34052 c -23.204,-22.2468 22.8504,-30.46986 12.0092,-55.93555 -18.6768,-27.245677 -14.5473,-70.928677 12.7748,-92.652047 46.9584,19.964998 -22.2303,41.898301 6.122,73.999997 16.0718,22.37106 3.1859,59.22357 -12.9325,66.87043 -3.2123,4.21878 -10.9747,10.68109 -17.9735,7.71717 z m 16.9573,-6.5185 c -0.3651,-4.92516 -3.1875,3.32686 0,0 z m -47.4524,5.93391 c -6.9984,-11.45225 -14.91605,-25.81432 -25.73125,-10.72824 -14.2838,5.86117 -37.21003,13.36113 -48.05015,-5.1001 -16.2683,-9.94841 -15.065,-30.21128 -20.79776,-50.2949 -19.22807,-32.047414 23.82141,-107.8098871 24.24994,-39.496334 -6.77914,10.521737 -5.96603,27.970387 -3.81603,45.053944 21.21647,68.45286 71.08955,-8.93507 51.7496,-46.937377 -17.5872,-27.600757 41.32035,-47.51645 26.32485,-6.5 -9.2361,33.56527 -2.4422,71.659807 17.9311,100.806957 -3.5941,9.99779 -11.5602,13.70396 -21.8603,13.19605 z M 913.69325,39.711393 c -1.20936,-3.656153 -2.46629,3.562285 0,0 z M 1466.2123,162.21139 c -11.2217,-25.29598 28.7882,-15.65723 32.0838,-36.33352 23.4149,-38.981057 -7.8167,-76.387929 -31.7706,-92.562855 24.504,-38.4958831 79.2772,34.301572 63.1651,68.896375 -4.1911,20.15929 -11.0998,26.93028 -20.6923,42.0989 -8.8277,7.84025 -11.0296,16.96989 -26.1112,18.08995 -6.9974,-0.99632 -12.7989,5.12865 -16.6748,-0.18885 z m 37.0074,-41.30687 c -4.3497,1.18778 -1.9332,2.83007 0,0 z M 468.33927,29.259142 c -10.53731,-14.128251 12.85306,-29.1997621 19.1232,-24.934158 17.08611,-7.7326971 -7.30645,39.904756 -19.1232,24.934158 z m -240.91262,-5.49993 c -37.6276,-18.675093 45.66776,-37.409729 6.2666,-0.87189 l -6.2666,0.87189 0,0 z" />
  <path
        id="mustardText"
        style="fill: url(#mustardGradient);"
        d="m 1290.1932,200.76428 c -20.693,-45.19723 61.9336,-15.60225 0,0 z m -253.75,-4.15836 c -8.1699,-28.10849 44.6759,-35.68384 20.25,-6.9288 -7.7207,8.76834 -12.2747,4.59052 -20.25,6.9288 z M 729.70964,178.83226 c -16.42078,-41.16598 -47.54411,26.70962 -81.56545,-8.83332 -22.22077,-25.87971 -18.81701,-73.377137 -6.77119,-97.037547 18.34324,-23.445391 49.03057,-33.052329 75.53841,-37.511618 38.3526,-4.252518 26.03358,44.164038 -7.23944,24.883194 -38.89068,0.05958 -63.64278,46.980301 -45.97872,78.668171 21.55767,26.90464 36.83678,-26.79018 29.34134,-42.708457 24.41324,-22.13245 31.91911,29.446377 42.05467,45.217607 36.4484,-20.06517 -2.32729,-109.426917 55.12231,-126.278517 18.45731,20.39278 22.34725,20.564454 42.8084,2.776595 55.13627,-14.1279531 71.36371,53.049295 55.20201,92.852212 -2.97149,21.47824 -37.0477,39.40052 -60.75031,45.5382 -23.5312,17.65094 -69.69887,-22.55511 -24.57621,-22.19268 38.58444,9.44045 74.60601,-32.62937 62.3435,-68.994333 -5.60206,-38.859051 -54.5165,4.040566 -28.19127,30.266046 -23.55652,30.050587 -37.02004,-18.11963 -43.72477,-36.993888 -39.73791,-2.121671 -1.7317,101.378235 -51.74651,119.960765 l -6.67067,2.16394 -5.1961,-1.77637 0,0 z m -263.66063,-1.89624 c -38.26569,-20.97058 30.51432,-45.51641 -4.45576,-77.33293 -14.50318,-24.468527 4.07473,-52.985656 16.36431,-63.049091 25.54843,-18.84352 28.92072,20.938453 6.73569,31.543084 -8.03002,27.82763 23.46099,48.730097 6.4703,78.424387 -3.24561,10.73502 -11.20997,37.92356 -25.11454,30.41455 z M 479.69325,38.152376 c -3.06815,-3.545062 -0.58933,4.928059 0,0 z M 48.193247,177.55571 C 8.021942,172.50402 -13.385198,117.6748 4.2071363,83.054643 9.778744,70.489613 14.929564,58.550924 28.115753,47.711393 27.450689,42.484703 47.115521,33.914111 59.861777,34.920016 80.847357,58.709015 34.511712,52.479806 32.693247,72.211393 16.90388,97.498533 20.309716,151.65447 56.508699,155.12366 c 12.959428,-0.23261 7.013118,32.32661 -8.315452,22.43205 z M 28.186168,77.722843 c -2.530777,-1.82881 -3.981218,3.22138 0,0 z M 88.634767,176.74248 C 49.166766,166.17953 86.206637,95.400553 71.873807,60.235337 c -7.36568,-52.5599601 42.124023,-7.656864 22.88894,23.363696 -3.67349,27.238907 22.413463,1.66866 36.913103,1.13293 35.6037,6.99583 50.26532,-10.56828 16.53134,-34.654283 -28.99989,-41.277154 36.6365,-11.044625 42.04432,12.734668 -1.04014,6.888615 32.05407,-70.07751 35.3051,-19.600787 -17.545,30.821322 -19.71736,70.784559 -7.88456,103.213699 20.86926,31.25722 -12.62123,30.24264 -25.38603,7.05478 -20.10707,42.43842 -86.62576,14.14099 -67.41293,-29.76865 -4.91126,-22.96217 50.49239,-27.882367 25.66892,-10.36108 -31.98269,12.94516 1.47685,65.1461 24.15124,36.52222 29.22393,-39.61435 -37.50611,-75.940607 -65.37905,-43.85578 -25.032573,17.10128 -6.91298,54.65053 -20.679433,70.72573 z M 190.69325,67.711393 c -2.46629,-3.562285 -1.20936,3.65615 0,0 z M 363.02264,172.82653 c -40.03866,-6.08864 -14.25105,-43.9492 17.17061,-25.61514 -2.47044,-36.20255 7.19609,-78.401867 -21.01095,-106.482283 -10.71824,-15.860137 25.82709,-3.972252 23.45761,-11.038851 16.60853,-0.201721 49.3427,-6.59742 54.75519,20.65262 11.84869,29.618097 -7.97257,64.087194 -35.15478,66.444674 -12.66493,37.98718 10.13732,31.16125 33.46389,20.5348 12.60639,45.68883 -45.45604,33.05809 -72.68157,35.50418 z m 47.98603,-76.413797 c 31.0444,-12.10088 1.89477,-66.092801 -15.277,-44.626036 9.07105,11.017706 -6.34545,48.125423 15.277,44.626036 z M 255.21635,170.73692 c -25.96458,-23.21682 -6.04158,-65.0003 -16.35292,-95.847407 -9.62628,-21.364058 -4.72487,-58.238054 19.66603,-47.286873 5.84309,30.888569 39.67883,-21.5903761 62.11812,0.697375 43.14147,22.479891 22.28672,84.490895 -13.87136,103.411375 -1.84543,14.7895 41.82378,15.17035 22.45491,37.21625 -27.70953,-13.25584 -47.74402,-29.0538 -70.13289,3.78001 l -3.88189,-1.97073 0,0 z m 26.31023,-42.01022 c 5.44486,-2.88709 32.55945,-21.3969 33.14042,-38.350127 15.79265,-53.517547 -50.49706,-52.714944 -46.58078,-5.46513 3.59676,12.83442 1.4675,39.120437 13.44036,43.815257 z m 58.83334,-73.471318 c -2.5569,-3.463457 -0.21437,4.552446 0,0 z M 524.44903,169.931 c -9.2276,-33.89158 13.55581,-73.419267 -11.23757,-109.162074 -24.82439,-17.476262 14.53806,-43.938596 20.36646,-18.854924 4.2469,20.879399 17.11756,-7.034081 32.99025,-3.21678 14.51819,-10.364233 32.86128,5.238513 40.73913,16.450787 11.68175,18.856374 15.21021,52.380411 15.51759,78.644741 7.46582,50.00244 -45.89721,31.69352 -23.29832,-2.47835 1.68754,-16.09462 7.00518,-50.059867 -15.59455,-64.494057 -40.13056,-16.538342 -39.1085,57.667577 -36.3696,74.310217 6.53813,16.79319 -4.80783,34.99834 -23.11339,28.80044 z m 92.74422,-10.21961 c -1.20936,-3.65615 -2.46629,3.56228 0,0 z m 596.99995,9.9672 c -49.0723,-10.38547 -38.4967,-78.135787 -3.9221,-100.200707 30.1672,-18.339635 -33.2176,-16.446742 -17.0324,-41.04588 25.4459,-2.739787 48.6821,37.90726 67.3352,-3.40602 35.7396,-0.08475 18.4872,53.65369 23.6092,78.439707 3.7619,22.37183 17.0014,72.20437 -14.4107,65.4367 -8.5853,-30.65655 -31.8256,12.12718 -55.5789,0.77622 l -3e-4,-2e-5 z m 17.6158,-20.70192 c 35.5832,-12.12224 28.7971,-62.774257 12.1339,-82.280587 -5.6028,2.84651 -32.5841,21.40171 -33.2237,38.350127 -1.8302,11.06863 2.8689,51.9569 21.0898,43.93046 z m -45.6585,-8.19618 c 0.01,-4.63536 -2.6904,3.2675 0,0 z m 122.5427,29.1182 c -20.1021,-22.36876 20.0743,-66.3338 5.2235,-100.049157 -0.3083,-14.333475 -29.5515,-59.54497 3.6973,-42.775479 16.4317,38.755629 56.9708,-44.053706 79.5792,10.637339 14.4569,20.578902 1.9418,51.62031 -18.1316,55.78154 -34.7328,-3.03827 31.4357,-22.86415 5.0188,-47.599904 -49.2284,-35.882322 -53.5343,66.487181 -0.7601,55.087531 33.6049,2.51149 52.3894,-30.463077 48.6949,-59.98381 -11.0772,-42.095533 42.6169,-16.140794 20.7307,14.72411 -11.5966,29.112753 22.7028,104.49498 -15.7786,102.76845 -19.6609,-15.18531 11.489,-79.335857 -28.8693,-52.6275 -15.7085,12.20858 -63.3126,-5.93911 -47.5732,19.84958 23.1469,13.28764 38.1922,59.58953 -0.782,34.21497 -16.6651,-16.48314 -32.9796,-53.143 -35.053,-5.50015 -3.1878,5.91498 -8.2342,15.77666 -15.9966,15.47248 z m 28,-41.62828 c -2.3337,-3.43479 -2.8802,1.90558 0,0 z m -190.9054,39.69098 c -11.9098,-7.76101 -48.2464,8.81608 -56.0793,-18.25 -13.3189,-24.62643 0.6742,-55.067907 17.792,-67.239177 35.8559,-0.11789 14.6912,-58.312821 -13.6408,-23.269464 -24.4001,-43.438467 53.2939,-38.195962 81.8335,-35.922417 34.2996,46.216451 -35.7899,8.262535 -30.0797,36.931061 -1.6926,35.06073 -1.8354,72.238577 23.1119,99.019927 2.2348,12.76778 -21.0663,10.14901 -22.9376,8.73007 z m -14.0946,-20.00292 c -7.189,-16.71754 -1.7347,-71.836617 -28.8836,-37.6737 -5.9502,18.59448 2.7113,44.58174 28.8836,37.6737 z m -101.5,16.34052 c -23.204,-22.2468 22.8504,-30.46986 12.0092,-55.93555 -18.6768,-27.245677 -14.5473,-70.928677 12.7748,-92.652047 46.9584,19.964998 -22.2303,41.898301 6.122,74 16.0718,22.371057 3.1859,59.223567 -12.9325,66.870427 -3.2123,4.21878 -10.9747,10.68109 -17.9735,7.71717 z m 16.9573,-6.5185 c -0.3651,-4.92516 -3.1875,3.32686 0,0 z m -47.4524,5.93391 c -6.99845,-11.45225 -14.91605,-25.81432 -25.73125,-10.72824 -14.2838,5.86117 -37.21003,13.36113 -48.05015,-5.1001 -16.2683,-9.94841 -15.065,-30.21128 -20.79776,-50.294897 -19.22807,-32.047417 23.82141,-107.80989 24.24994,-39.496337 -6.77914,10.521737 -5.96603,27.970387 -3.81603,45.053944 21.21647,68.45286 71.0895,-8.935067 51.7496,-46.937377 -17.5872,-27.600757 41.32035,-47.51645 26.32485,-6.5 -9.23615,33.56527 -2.4422,71.659807 17.9311,100.806957 -3.5941,9.99779 -11.5602,13.70396 -21.8603,13.19605 z M 909.69325,35.711393 c -1.20936,-3.656153 -2.46629,3.562285 0,0 z M 1462.2123,158.21139 c -11.2217,-25.29598 28.7882,-15.65723 32.0838,-36.33352 23.4149,-38.981057 -7.8167,-76.387929 -31.7706,-92.562855 24.504,-38.495883 79.2772,34.301572 63.1651,68.896375 -4.1911,20.15929 -11.0998,26.93028 -20.6923,42.0989 -8.8277,7.84025 -11.0296,16.96989 -26.1112,18.08995 -6.9974,-0.99632 -12.7989,5.12865 -16.6748,-0.18885 z m 37.0074,-41.30687 c -4.3497,1.18778 -1.9332,2.83007 0,0 z M 464.33927,25.259142 C 453.80196,11.130891 477.19233,-3.94062 483.46247,0.3249839 500.54858,-7.407713 476.15602,40.22974 464.33927,25.259142 z m -240.91262,-5.49993 c -37.6276,-18.6750931 45.66776,-37.409729 6.2666,-0.87189 l -6.2666,0.87189 0,0 z" />
</svg>
