<?xml version="1.0" encoding="UTF-8"?>
<svg
     version="1.1"
     xmlns="http://www.w3.org/2000/svg"
     xmlns:dc="http://purl.org/dc/elements/1.1/"
     xmlns:cc="http://creativecommons.org/ns#"
     xmlns:rdf="http://www.w3.org/1999/02/22-rdf-syntax-ns#"
     viewBox="0 0 60 63">
  <title>Otter Track</title>
  <metadata>
    <rdf:RDF>
      <cc:Work rdf:about="">
        <dc:format>image/svg+xml</dc:format>
        <dc:type rdf:resource="http://purl.org/dc/dcmitype/StillImage" />
        <dc:title>Otter Track</dc:title>
        <dc:creator>
          <cc:Agent>
            <dc:title>Katie M Westbrook</dc:title>
          </cc:Agent>
        </dc:creator>
        <dc:publisher>
          <cc:Agent>
            <dc:title>The Noun Project</dc:title>
          </cc:Agent>
        </dc:publisher>
        <dc:source>http://thenounproject.com/term/otter-track/3498/</dc:source>
        <cc:license rdf:resource="http://creativecommons.org/licenses/by/3.0/" />
      </cc:Work>
      <cc:License rdf:about="http://creativecommons.org/licenses/by/3.0/">
        <cc:permits rdf:resource="http://creativecommons.org/ns#Reproduction" />
        <cc:permits rdf:resource="http://creativecommons.org/ns#Distribution" />
        <cc:permits rdf:resource="http://creativecommons.org/ns#DerivativeWorks" />
        <cc:requires rdf:resource="http://creativecommons.org/ns#Attribution" />
        <cc:requires rdf:resource="http://creativecommons.org/ns#Notice" />
      </cc:License>
    </rdf:RDF>
  </metadata>
  <path
        id="path3"
        d="m 19.350748,54.219339 c 0,0 -4.299,-3.143 -0.992,-8.931 3.307,-5.787 2.976,-10.582 1.984,-12.566 -0.992,-1.984 -0.661,-6.118 5.622,-5.125 6.283,0.993 4.133,-3.472 8.102,-1.984 3.968,1.488 2.812,5.787 8.928,8.267 6.117,2.48 -0.331,12.731 0.661,16.038 0.992,3.309 4.135,5.457 3.804,8.93 -0.332,3.473 -6.283,6.447 -10.581,1.324 -4.299,-5.127 -0.166,-10.089 -4.96,-11.412 -4.797,-1.322 -5.623,9.427 -12.568,5.459 z" />
  <path
        id="path5"
        d="m 1.4947477,32.557339 c 0,0 -1.48800005,1.984 -0.66100005,3.307 0.82700005,1.322 1.32300005,4.959 1.81900005,5.787 0.496,0.828 3.472,2.315 5.456,2.315 1.9840003,0 3.1410003,0.661 4.7940003,0.165 1.654,-0.496 -5.2910003,-10.747 -8.1010003,-10.581 -2.811,0.164 -1.489,-1.324 -3.307,-0.993 z" />
  <path
        id="path7"
        d="m 6.7857477,4.6153393 c 0,0 -2.149,-0.496 -2.315,0.827 -0.13,1.038 1.654,5.1249997 1.488,7.7709997 -0.079,1.256 0,3.141 1.819,3.968 1.819,0.827 3.9680003,3.637 4.4640003,3.968 0.496,0.331 3.307,4.465 4.464,4.299 1.157,-0.166 1.818,-2.646 0.165,-4.464 -1.653,-1.818 -1.654,-6.613 -2.976,-9.424 -1.322,-2.8109997 -5.7860003,-6.9449997 -7.1090003,-6.9449997 z" />
  <path
        id="path9"
        d="m 31.421748,21.479339 c 0,0 1.488,0.496 1.984,-2.48 0.219,-1.315 0.991,-8.929 2.313,-10.0859997 1.323,-1.157 0.166,-7.771 -0.992,-8.76299999 -1.157,-0.99199997 -7.439,8.43199999 -7.109,11.07699969 0.331,2.646 2.315,0.151 2.315,8.929 0,1.323 1.489,1.323 1.489,1.323 z" />
  <path
        id="path11"
        d="m 44.151748,28.589339 c 0,0 0.89,-9.011 0.828,-10.085 -0.043,-0.739 5.291,-7.275 6.283,-6.944 0.992,0.331 -0.89,12.958 -5.126,17.195 -2.314,2.314 -1.985,-0.166 -1.985,-0.166 z" />
  <path
        id="path13"
        d="m 49.278748,40.328339 c 0,0 -0.124,0.84 1.321,1.322 0.496,0.166 7.192,-3.06 8.184,-8.845 0.992,-5.787 0.703,-5.291 -0.08,-5.043 0,0 -3.287,1.323 -5.105,3.968 -1.82,2.645 -2.973,4.605 -3.494,5.788 -0.538,1.218 -0.662,1.218 -0.826,2.81 z" />
</svg>
