<?xml version="1.0" encoding="UTF-8"?><svg xmlns="http://www.w3.org/2000/svg" viewBox="0 0 1530.6075 202.76428"><defs><linearGradient id="a" x1="1542.324" y1="97.691" x2="403.406" y2="97.691" gradientUnits="userSpaceOnUse"><stop stop-color="#ceb301" offset="0"/><stop stop-color="#ceb301" stop-opacity="0" offset="1"/></linearGradient><linearGradient id="b" x1="-5.629" y1="108.949" x2="1146.723" y2="108.949" gradientUnits="userSpaceOnUse"><stop stop-color="#ef4026" offset="0"/><stop stop-color="#ef4026" stop-opacity="0" offset="1"/></linearGradient></defs><path d="M1292.193 202.764c-20.693-45.197 61.934-15.602 0 0zm-253.75-4.158c-8.17-28.11 44.676-35.684 20.25-6.93-7.72 8.77-12.275 4.592-20.25 6.93zM731.71 180.832c-16.42-41.166-47.544 26.71-81.566-8.833-22.22-25.88-18.817-73.378-6.77-97.04 18.342-23.444 49.03-33.05 75.537-37.51 38.354-4.253 26.035 44.164-7.238 24.883-38.89.06-63.643 46.98-45.98 78.668 21.56 26.906 36.838-26.79 29.343-42.707 24.413-22.133 31.92 29.446 42.054 45.217 36.448-20.065-2.328-109.427 55.122-126.278 18.457 20.393 22.347 20.564 42.808 2.776 55.136-14.128 71.364 53.05 55.202 92.853-2.972 21.48-37.048 39.4-60.75 45.54-23.532 17.65-69.7-22.556-24.577-22.194 38.585 9.44 74.606-32.63 62.344-68.994-5.603-38.86-54.518 4.04-28.192 30.266-23.557 30.05-37.02-18.12-43.725-36.994-39.738-2.122-1.732 101.378-51.747 119.96l-6.67 2.165-5.196-1.778zm-263.66-1.896c-38.267-20.97 30.513-45.516-4.457-77.333-14.503-24.468 4.075-52.986 16.365-63.05 25.548-18.843 28.92 20.94 6.735 31.544-8.03 27.828 23.46 48.73 6.47 78.424-3.245 10.736-11.21 37.925-25.114 30.416zm13.643-138.784c-3.068-3.545-.59 4.928 0 0zm-431.5 139.404c-40.17-5.052-61.578-59.88-43.986-94.5C11.78 72.49 16.93 60.55 30.117 49.71c-.666-5.225 19-13.796 31.745-12.79 20.985 23.79-25.35 17.56-27.17 37.29C18.905 99.5 22.31 153.655 58.51 157.125c12.958-.233 7.012 32.326-8.317 22.432zM30.186 79.723c-2.53-1.83-3.98 3.22 0 0zm60.45 99.02C51.165 168.18 88.205 97.4 73.873 62.234c-7.366-52.56 42.124-7.657 22.89 23.364-3.675 27.238 22.412 1.668 36.912 1.132 35.604 6.996 50.265-10.568 16.53-34.654-29-41.277 36.638-11.045 42.046 12.734-1.04 6.89 32.054-70.077 35.305-19.6-17.545 30.82-19.718 70.784-7.885 103.213 20.87 31.257-12.62 30.243-25.386 7.055-20.107 42.438-86.626 14.14-67.413-29.77-4.91-22.96 50.492-27.88 25.67-10.36-31.984 12.945 1.476 65.146 24.15 36.523 29.224-39.615-37.506-75.94-65.38-43.856-25.03 17.1-6.912 54.65-20.678 70.725zM192.692 69.71c-2.466-3.56-1.21 3.658 0 0zm172.33 105.117c-40.04-6.09-14.25-43.95 17.17-25.616-2.47-36.2 7.196-78.4-21.01-106.48-10.72-15.86 25.826-3.973 23.457-11.04 16.608-.2 49.343-6.597 54.755 20.653 11.85 29.618-7.972 64.087-35.155 66.445-12.665 37.987 10.138 31.16 33.464 20.534 12.607 45.69-45.456 33.058-72.68 35.505zm47.986-76.414c31.043-12.1 1.893-66.093-15.278-44.626 9.07 11.017-6.346 48.125 15.277 44.626zm-155.794 74.324c-25.964-23.217-6.04-65-16.353-95.847-9.626-21.365-4.724-58.24 19.666-47.287 5.843 30.888 39.678-21.59 62.118.697 43.14 22.48 22.286 84.49-13.872 103.41-1.845 14.79 41.824 15.172 22.455 37.218-27.708-13.256-47.743-29.054-70.132 3.78l-3.882-1.97zm26.31-42.01c5.445-2.887 32.56-21.397 33.14-38.35 15.794-53.518-50.496-52.715-46.58-5.466 3.597 12.836 1.468 39.122 13.44 43.817zm58.834-73.472c-2.557-3.463-.214 4.553 0 0zM526.45 171.93c-9.23-33.89 13.555-73.418-11.24-109.16-24.823-17.477 14.54-43.94 20.368-18.856 4.247 20.88 17.117-7.034 32.99-3.217 14.518-10.364 32.86 5.24 40.74 16.45 11.68 18.857 15.21 52.38 15.517 78.646 7.466 50.002-45.897 31.693-23.298-2.48 1.687-16.093 7.005-50.058-15.595-64.493-40.13-16.538-39.108 57.668-36.37 74.31 6.54 16.794-4.807 35-23.113 28.8zm92.743-10.22c-1.21-3.655-2.466 3.564 0 0zm597 9.97c-49.072-10.387-38.496-78.137-3.922-100.202 30.168-18.34-33.216-16.447-17.03-41.046 25.445-2.74 48.68 37.907 67.334-3.406 35.74-.085 18.487 53.654 23.61 78.44 3.76 22.372 17 72.204-14.412 65.436-8.585-30.656-31.825 12.128-55.578.777zm17.616-20.703c35.582-12.123 28.796-62.775 12.133-82.28-5.603 2.846-32.584 21.4-33.224 38.35-1.83 11.068 2.868 51.956 21.09 43.93zm-45.66-8.197c.01-4.635-2.69 3.268 0 0zm122.543 29.12c-20.102-22.37 20.075-66.335 5.224-100.05-.31-14.334-29.552-59.545 3.697-42.776 16.432 38.756 56.97-44.054 79.58 10.637 14.456 20.58 1.94 51.622-18.132 55.783-34.733-3.038 31.435-22.864 5.018-47.6-49.228-35.882-53.534 66.487-.76 55.088 33.605 2.512 52.39-30.463 48.695-59.983-11.077-42.096 42.617-16.14 20.73 14.724-11.596 29.114 22.704 104.496-15.778 102.77-19.66-15.186 11.49-79.337-28.87-52.628-15.707 12.208-63.312-5.94-47.572 19.85 23.147 13.287 38.192 59.59-.782 34.214-16.665-16.483-32.98-53.143-35.053-5.5-3.188 5.915-8.234 15.777-15.997 15.473zm28-41.63c-2.333-3.434-2.88 1.906 0 0zm-190.905 39.69c-11.91-7.76-48.247 8.817-56.08-18.25-13.318-24.625.675-55.067 17.792-67.238 35.856-.118 14.692-58.313-13.64-23.27-24.4-43.438 53.294-38.195 81.833-35.922 34.3 46.217-35.79 8.263-30.08 36.93-1.692 35.062-1.835 72.24 23.112 99.02 2.235 12.77-21.066 10.15-22.937 8.73zm-14.095-20.002c-7.19-16.717-1.734-71.836-28.883-37.673-5.95 18.594 2.71 44.582 28.883 37.673zm-101.5 16.34c-23.204-22.246 22.85-30.47 12.01-55.935-18.677-27.245-14.548-70.928 12.774-92.652 46.96 19.966-22.23 41.9 6.122 74 16.07 22.372 3.185 59.225-12.933 66.872-3.213 4.22-10.975 10.68-17.974 7.717zm16.958-6.518c-.365-4.925-3.187 3.327 0 0zm-47.452 5.934c-6.998-11.452-14.916-25.814-25.73-10.728-14.285 5.86-37.21 13.36-48.05-5.1-16.27-9.948-15.066-30.21-20.8-50.295-19.227-32.046 23.822-107.81 24.25-39.495-6.778 10.522-5.965 27.97-3.815 45.054 21.216 68.452 71.09-8.936 51.75-46.94-17.588-27.6 41.32-47.515 26.324-6.5-9.236 33.567-2.442 71.66 17.93 100.808-3.593 9.998-11.56 13.704-21.86 13.196zM911.693 37.71c-1.21-3.655-2.466 3.564 0 0zm552.52 122.5c-11.222-25.295 28.787-15.656 32.083-36.332 23.415-38.98-7.817-76.388-31.77-92.563 24.503-38.496 79.277 34.302 63.165 68.896-4.19 20.16-11.1 26.932-20.692 42.1-8.827 7.84-11.03 16.97-26.11 18.09-6.998-.996-12.8 5.13-16.676-.19zm37.007-41.305c-4.35 1.187-1.934 2.83 0 0zM466.34 27.26C455.8 13.13 479.19-1.94 485.46 2.324c17.087-7.733-7.306 39.905-19.123 24.934zm-240.913-5.5c-37.628-18.676 45.667-37.41 6.266-.873l-6.266.872z"/><path d="M1294.193 204.764c-20.693-45.197 61.934-15.602 0 0zm-253.75-4.158c-8.17-28.11 44.676-35.684 20.25-6.93-7.72 8.77-12.275 4.592-20.25 6.93zM733.71 182.832c-16.42-41.166-47.544 26.71-81.566-8.833-22.22-25.88-18.817-73.378-6.77-97.04 18.342-23.444 49.03-33.05 75.537-37.51 38.354-4.253 26.035 44.164-7.238 24.883-38.89.06-63.643 46.98-45.98 78.668 21.56 26.906 36.838-26.79 29.343-42.707 24.413-22.133 31.92 29.446 42.054 45.217 36.448-20.065-2.328-109.427 55.122-126.278 18.457 20.393 22.347 20.564 42.808 2.776 55.136-14.128 71.364 53.05 55.202 92.853-2.972 21.48-37.048 39.4-60.75 45.54-23.532 17.65-69.7-22.556-24.577-22.194 38.585 9.44 74.606-32.63 62.344-68.994-5.603-38.86-54.518 4.04-28.192 30.266-23.557 30.05-37.02-18.12-43.725-36.994-39.738-2.122-1.732 101.378-51.747 119.96l-6.67 2.165-5.196-1.778zm-263.66-1.896c-38.267-20.97 30.513-45.516-4.457-77.333-14.503-24.468 4.075-52.986 16.365-63.05 25.548-18.843 28.92 20.94 6.735 31.544-8.03 27.828 23.46 48.73 6.47 78.424-3.245 10.736-11.21 37.925-25.114 30.416zm13.643-138.784c-3.068-3.545-.59 4.928 0 0zm-431.5 139.404c-40.17-5.052-61.578-59.88-43.986-94.5C13.78 74.49 18.93 62.55 32.117 51.71c-.666-5.225 19-13.796 31.745-12.79 20.985 23.79-25.35 17.56-27.17 37.29-15.788 25.29-12.382 79.444 23.817 82.914 12.958-.233 7.012 32.326-8.317 22.432zM32.186 81.723c-2.53-1.83-3.98 3.22 0 0zm60.45 99.02C53.165 170.18 90.205 99.4 75.873 64.234c-7.366-52.56 42.124-7.657 22.89 23.364-3.675 27.238 22.412 1.668 36.912 1.132 35.604 6.996 50.265-10.568 16.53-34.654-29-41.277 36.638-11.045 42.046 12.734-1.04 6.89 32.054-70.077 35.305-19.6-17.545 30.82-19.718 70.784-7.885 103.213 20.87 31.257-12.62 30.243-25.386 7.055-20.107 42.438-86.626 14.14-67.413-29.77-4.91-22.96 50.492-27.88 25.67-10.36-31.984 12.945 1.476 65.146 24.15 36.523 29.224-39.615-37.506-75.94-65.38-43.856-25.03 17.1-6.912 54.65-20.678 70.725zM194.692 71.71c-2.466-3.56-1.21 3.658 0 0zm172.33 105.117c-40.04-6.09-14.25-43.95 17.17-25.616-2.47-36.2 7.196-78.4-21.01-106.48-10.72-15.86 25.826-3.973 23.457-11.04 16.608-.2 49.343-6.597 54.755 20.653 11.85 29.618-7.972 64.087-35.155 66.445-12.665 37.987 10.138 31.16 33.464 20.534 12.607 45.69-45.456 33.058-72.68 35.505zm47.986-76.414c31.043-12.1 1.893-66.093-15.278-44.626 9.07 11.017-6.346 48.125 15.277 44.626zm-155.794 74.324c-25.964-23.217-6.04-65-16.353-95.847-9.626-21.365-4.724-58.24 19.666-47.287 5.843 30.888 39.678-21.59 62.118.697 43.14 22.48 22.286 84.49-13.872 103.41-1.845 14.79 41.824 15.172 22.455 37.218-27.708-13.256-47.743-29.054-70.132 3.78l-3.882-1.97zm26.31-42.01c5.445-2.887 32.56-21.397 33.14-38.35 15.794-53.518-50.496-52.715-46.58-5.466 3.597 12.836 1.468 39.122 13.44 43.817zm58.834-73.472c-2.557-3.463-.214 4.553 0 0zM528.45 173.93c-9.23-33.89 13.555-73.418-11.24-109.16-24.823-17.477 14.54-43.94 20.368-18.856 4.247 20.88 17.117-7.034 32.99-3.217 14.518-10.364 32.86 5.24 40.74 16.45 11.68 18.857 15.21 52.38 15.517 78.646 7.466 50.002-45.897 31.693-23.298-2.48 1.687-16.093 7.005-50.058-15.595-64.493-40.13-16.538-39.108 57.668-36.37 74.31 6.54 16.794-4.807 35-23.113 28.8zm92.743-10.22c-1.21-3.655-2.466 3.564 0 0zm597 9.97c-49.072-10.387-38.496-78.137-3.922-100.202 30.168-18.34-33.216-16.447-17.03-41.046 25.445-2.74 48.68 37.907 67.334-3.406 35.74-.085 18.487 53.654 23.61 78.44 3.76 22.372 17 72.204-14.412 65.436-8.585-30.656-31.825 12.128-55.578.777zm17.616-20.703c35.582-12.123 28.796-62.775 12.133-82.28-5.603 2.846-32.584 21.4-33.224 38.35-1.83 11.068 2.868 51.956 21.09 43.93zm-45.66-8.197c.01-4.635-2.69 3.268 0 0zm122.543 29.12c-20.102-22.37 20.075-66.335 5.224-100.05-.31-14.334-29.552-59.545 3.697-42.776 16.432 38.756 56.97-44.054 79.58 10.637 14.456 20.58 1.94 51.622-18.132 55.783-34.733-3.038 31.435-22.864 5.018-47.6-49.228-35.882-53.534 66.487-.76 55.088 33.605 2.512 52.39-30.463 48.695-59.983-11.077-42.096 42.617-16.14 20.73 14.724-11.596 29.114 22.704 104.496-15.778 102.77-19.66-15.186 11.49-79.337-28.87-52.628-15.707 12.208-63.312-5.94-47.572 19.85 23.147 13.287 38.192 59.59-.782 34.214-16.665-16.483-32.98-53.143-35.053-5.5-3.188 5.915-8.234 15.777-15.997 15.473zm28-41.63c-2.333-3.434-2.88 1.906 0 0zm-190.905 39.69c-11.91-7.76-48.247 8.817-56.08-18.25-13.318-24.625.675-55.067 17.792-67.238 35.856-.118 14.692-58.313-13.64-23.27-24.4-43.438 53.294-38.195 81.833-35.922 34.3 46.217-35.79 8.263-30.08 36.93-1.692 35.062-1.835 72.24 23.112 99.02 2.235 12.77-21.066 10.15-22.937 8.73zm-14.095-20.002c-7.19-16.717-1.734-71.836-28.883-37.673-5.95 18.594 2.71 44.582 28.883 37.673zm-101.5 16.34c-23.204-22.246 22.85-30.47 12.01-55.935-18.677-27.245-14.548-70.928 12.774-92.652 46.96 19.966-22.23 41.9 6.122 74 16.07 22.372 3.185 59.225-12.933 66.872-3.213 4.22-10.975 10.68-17.974 7.717zm16.958-6.518c-.365-4.925-3.187 3.327 0 0zm-47.452 5.934c-6.998-11.452-14.916-25.814-25.73-10.728-14.285 5.86-37.21 13.36-48.05-5.1-16.27-9.948-15.066-30.21-20.8-50.295-19.227-32.046 23.822-107.81 24.25-39.495-6.778 10.522-5.965 27.97-3.815 45.054 21.216 68.452 71.09-8.936 51.75-46.94-17.588-27.6 41.32-47.515 26.324-6.5-9.236 33.567-2.442 71.66 17.93 100.808-3.593 9.998-11.56 13.704-21.86 13.196zM913.693 39.71c-1.21-3.655-2.466 3.564 0 0zm552.52 122.5c-11.222-25.295 28.787-15.656 32.083-36.332 23.415-38.98-7.817-76.388-31.77-92.563 24.503-38.496 79.277 34.302 63.165 68.896-4.19 20.16-11.1 26.932-20.692 42.1-8.827 7.84-11.03 16.97-26.11 18.09-6.998-.996-12.8 5.13-16.676-.19zm37.007-41.305c-4.35 1.187-1.934 2.83 0 0zM468.34 29.26C457.8 15.13 481.19.06 487.46 4.324c17.087-7.733-7.306 39.905-19.123 24.934zm-240.913-5.5c-37.628-18.676 45.667-37.41 6.266-.873l-6.266.872z" fill="url(#a)"/><path d="M1290.193 200.764c-20.693-45.197 61.934-15.602 0 0zm-253.75-4.158c-8.17-28.11 44.676-35.684 20.25-6.93-7.72 8.77-12.275 4.592-20.25 6.93zM729.71 178.832c-16.42-41.166-47.544 26.71-81.566-8.833-22.22-25.88-18.817-73.378-6.77-97.04 18.342-23.444 49.03-33.05 75.537-37.51 38.354-4.253 26.035 44.164-7.238 24.883-38.89.06-63.643 46.98-45.98 78.668 21.56 26.906 36.838-26.79 29.343-42.707 24.413-22.133 31.92 29.446 42.054 45.217 36.448-20.065-2.328-109.427 55.122-126.278 18.457 20.393 22.347 20.564 42.808 2.776 55.136-14.128 71.364 53.05 55.202 92.853-2.972 21.48-37.048 39.4-60.75 45.54-23.532 17.65-69.7-22.556-24.577-22.194 38.585 9.44 74.606-32.63 62.344-68.994-5.603-38.86-54.518 4.04-28.192 30.266-23.557 30.05-37.02-18.12-43.725-36.994-39.738-2.122-1.732 101.378-51.747 119.96l-6.67 2.165-5.196-1.778zm-263.66-1.896c-38.267-20.97 30.513-45.516-4.457-77.333-14.503-24.468 4.075-52.986 16.365-63.05 25.548-18.843 28.92 20.94 6.735 31.544-8.03 27.828 23.46 48.73 6.47 78.424-3.245 10.736-11.21 37.925-25.114 30.416zm13.643-138.784c-3.068-3.545-.59 4.928 0 0zm-431.5 139.404c-40.17-5.052-61.578-59.88-43.986-94.5C9.78 70.49 14.93 58.55 28.117 47.71c-.666-5.225 19-13.796 31.745-12.79 20.985 23.79-25.35 17.56-27.17 37.29C16.905 97.5 20.31 151.655 56.51 155.125c12.958-.233 7.012 32.326-8.317 22.432zM28.186 77.723c-2.53-1.83-3.98 3.22 0 0zm60.45 99.02C49.165 166.18 86.205 95.4 71.873 60.234c-7.366-52.56 42.124-7.657 22.89 23.364-3.675 27.238 22.412 1.668 36.912 1.132 35.604 6.996 50.265-10.568 16.53-34.654-29-41.277 36.638-11.045 42.046 12.734-1.04 6.89 32.054-70.077 35.305-19.6-17.545 30.82-19.718 70.784-7.885 103.213 20.87 31.257-12.62 30.243-25.386 7.055-20.107 42.438-86.626 14.14-67.413-29.77-4.91-22.96 50.492-27.88 25.67-10.36-31.984 12.945 1.476 65.146 24.15 36.523 29.224-39.615-37.506-75.94-65.38-43.856-25.03 17.1-6.912 54.65-20.678 70.725zM190.692 67.71c-2.466-3.56-1.21 3.658 0 0zm172.33 105.117c-40.04-6.09-14.25-43.95 17.17-25.616-2.47-36.2 7.196-78.4-21.01-106.48-10.72-15.86 25.826-3.973 23.457-11.04 16.608-.2 49.343-6.597 54.755 20.653 11.85 29.618-7.972 64.087-35.155 66.445-12.665 37.987 10.138 31.16 33.464 20.534 12.607 45.69-45.456 33.058-72.68 35.505zm47.986-76.414c31.043-12.1 1.893-66.093-15.278-44.626 9.07 11.017-6.346 48.125 15.277 44.626zm-155.794 74.324c-25.964-23.217-6.04-65-16.353-95.847-9.626-21.365-4.724-58.24 19.666-47.287 5.843 30.888 39.678-21.59 62.118.697 43.14 22.48 22.286 84.49-13.872 103.41-1.845 14.79 41.824 15.172 22.455 37.218-27.708-13.256-47.743-29.054-70.132 3.78l-3.882-1.97zm26.31-42.01c5.445-2.887 32.56-21.397 33.14-38.35 15.794-53.518-50.496-52.715-46.58-5.466 3.597 12.836 1.468 39.122 13.44 43.817zm58.834-73.472c-2.557-3.463-.214 4.553 0 0zM524.45 169.93c-9.23-33.89 13.555-73.418-11.24-109.16-24.823-17.477 14.54-43.94 20.368-18.856 4.247 20.88 17.117-7.034 32.99-3.217 14.518-10.364 32.86 5.24 40.74 16.45 11.68 18.857 15.21 52.38 15.517 78.646 7.466 50.002-45.897 31.693-23.298-2.48 1.687-16.093 7.005-50.058-15.595-64.493-40.13-16.538-39.108 57.668-36.37 74.31 6.54 16.794-4.807 35-23.113 28.8zm92.743-10.22c-1.21-3.655-2.466 3.564 0 0zm597 9.97c-49.072-10.387-38.496-78.137-3.922-100.202 30.168-18.34-33.216-16.447-17.03-41.046 25.445-2.74 48.68 37.907 67.334-3.406 35.74-.085 18.487 53.654 23.61 78.44 3.76 22.372 17 72.204-14.412 65.436-8.585-30.656-31.825 12.128-55.578.777zm17.616-20.703c35.582-12.123 28.796-62.775 12.133-82.28-5.603 2.846-32.584 21.4-33.224 38.35-1.83 11.068 2.868 51.956 21.09 43.93zm-45.66-8.197c.01-4.635-2.69 3.268 0 0zm122.543 29.12c-20.102-22.37 20.075-66.335 5.224-100.05-.31-14.334-29.552-59.545 3.697-42.776 16.432 38.756 56.97-44.054 79.58 10.637 14.456 20.58 1.94 51.622-18.132 55.783-34.733-3.038 31.435-22.864 5.018-47.6-49.228-35.882-53.534 66.487-.76 55.088 33.605 2.512 52.39-30.463 48.695-59.983-11.077-42.096 42.617-16.14 20.73 14.724-11.596 29.114 22.704 104.496-15.778 102.77-19.66-15.186 11.49-79.337-28.87-52.628-15.707 12.208-63.312-5.94-47.572 19.85 23.147 13.287 38.192 59.59-.782 34.214-16.665-16.483-32.98-53.143-35.053-5.5-3.188 5.915-8.234 15.777-15.997 15.473zm28-41.63c-2.333-3.434-2.88 1.906 0 0zm-190.905 39.69c-11.91-7.76-48.247 8.817-56.08-18.25-13.318-24.625.675-55.067 17.792-67.238 35.856-.118 14.692-58.313-13.64-23.27-24.4-43.438 53.294-38.195 81.833-35.922 34.3 46.217-35.79 8.263-30.08 36.93-1.692 35.062-1.835 72.24 23.112 99.02 2.235 12.77-21.066 10.15-22.937 8.73zm-14.095-20.002c-7.19-16.717-1.734-71.836-28.883-37.673-5.95 18.594 2.71 44.582 28.883 37.673zm-101.5 16.34c-23.204-22.246 22.85-30.47 12.01-55.935-18.677-27.245-14.548-70.928 12.774-92.652 46.96 19.966-22.23 41.9 6.122 74 16.07 22.372 3.185 59.225-12.933 66.872-3.213 4.22-10.975 10.68-17.974 7.717zm16.958-6.518c-.365-4.925-3.187 3.327 0 0zm-47.452 5.934c-6.998-11.452-14.916-25.814-25.73-10.728-14.285 5.86-37.21 13.36-48.05-5.1-16.27-9.948-15.066-30.21-20.8-50.295-19.227-32.046 23.822-107.81 24.25-39.495-6.778 10.522-5.965 27.97-3.815 45.054 21.216 68.452 71.09-8.936 51.75-46.94-17.588-27.6 41.32-47.515 26.324-6.5-9.236 33.567-2.442 71.66 17.93 100.808-3.593 9.998-11.56 13.704-21.86 13.196zM909.693 35.71c-1.21-3.655-2.466 3.564 0 0zm552.52 122.5c-11.222-25.295 28.787-15.656 32.083-36.332 23.415-38.98-7.817-76.388-31.77-92.563 24.503-38.496 79.277 34.302 63.165 68.896-4.19 20.16-11.1 26.932-20.692 42.1-8.827 7.84-11.03 16.97-26.11 18.09-6.998-.996-12.8 5.13-16.676-.19zm37.007-41.305c-4.35 1.187-1.934 2.83 0 0zM464.34 25.26C453.8 11.13 477.19-3.94 483.46.324c17.087-7.733-7.306 39.905-19.123 24.934zm-240.913-5.5c-37.628-18.676 45.667-37.41 6.266-.873l-6.266.872z" fill="url(#b)"/></svg>