<?xml version="1.0" encoding="UTF-8"?><svg xmlns="http://www.w3.org/2000/svg" viewBox="0 0 1530.6075 202.76428"><title>chirpingmustard.com logo</title><defs><linearGradient id="a" x1="1542.324" y1="97.691" x2="403.406" y2="97.691" gradientUnits="userSpaceOnUse"><stop stop-color="#ceb301" offset="0"/><stop stop-color="#ceb301" stop-opacity="0" offset="1"/></linearGradient><linearGradient id="b" x1="-5.629" y1="108.949" x2="1146.723" y2="108.949" gradientUnits="userSpaceOnUse"><stop stop-color="#ef4026" offset="0"/><stop stop-color="#ef4026" stop-opacity="0" offset="1"/></linearGradient></defs><path d="M1292.193 202.764c-20.693-45.197 61.934-15.602 0 0zm-253.75-4.158c-8.17-28.108 44.676-35.684 20.25-6.929-7.721 8.768-12.275 4.591-20.25 6.929zm-306.734-17.774c-16.421-41.166-47.544 26.71-81.565-8.833-22.221-25.88-18.817-73.377-6.771-97.038 18.343-23.445 49.031-33.052 75.538-37.512 38.353-4.253 26.034 44.164-7.239 24.883-38.891.06-63.643 46.98-45.979 78.668 21.558 26.905 36.837-26.79 29.341-42.708 24.413-22.132 31.919 29.446 42.055 45.218 36.448-20.065-2.327-109.427 55.122-126.279 18.457 20.393 22.347 20.564 42.808 2.777 55.136-14.128 71.364 53.049 55.202 92.852-2.971 21.478-37.048 39.401-60.75 45.538-23.531 17.651-69.699-22.555-24.576-22.193 38.584 9.44 74.606-32.629 62.343-68.994-5.602-38.859-54.517 4.041-28.191 30.266-23.557 30.051-37.02-18.12-43.725-36.994-39.738-2.122-1.732 101.378-51.747 119.961l-6.671 2.164-5.196-1.776zm-263.661-1.896c-38.266-20.971 30.514-45.516-4.456-77.333-14.503-24.469 4.075-52.986 16.364-63.049 25.548-18.844 28.921 20.938 6.736 31.543-8.03 27.828 23.461 48.73 6.47 78.424-3.246 10.735-11.21 37.924-25.115 30.415zm13.644-138.784c-3.068-3.545-.589 4.928 0 0zm-431.5 139.403c-40.171-5.052-61.578-59.881-43.986-94.501 5.572-12.565 10.722-24.504 23.909-35.343-.665-5.227 19-13.797 31.746-12.791 20.986 23.789-25.35 17.56-27.169 37.291-15.789 25.287-12.384 79.443 23.815 82.912 12.959-.233 7.013 32.327-8.315 22.432zm-20.007-99.833c-2.531-1.829-3.981 3.221 0 0zm60.449 99.02c-39.468-10.563-2.428-81.342-16.761-116.507-7.366-52.56 42.124-7.657 22.889 23.364-3.673 27.239 22.413 1.669 36.913 1.133 35.604 6.996 50.265-10.568 16.531-34.654-29-41.277 36.636-11.045 42.044 12.735-1.04 6.889 32.054-70.078 35.305-19.601-17.545 30.821-19.717 70.785-7.885 103.214 20.869 31.257-12.621 30.243-25.386 7.055-20.107 42.438-86.626 14.141-67.413-29.769-4.911-22.962 50.492-27.882 25.669-10.361-31.983 12.945 1.477 65.146 24.151 36.522 29.224-39.614-37.506-75.941-65.379-43.856-25.033 17.101-6.913 54.651-20.679 70.726zm102.058-109.031c-2.466-3.562-1.209 3.656 0 0zm172.329 105.115c-40.039-6.089-14.251-43.949 17.171-25.615-2.47-36.203 7.196-78.402-21.011-106.482-10.718-15.86 25.827-3.972 23.458-11.039 16.609-.202 49.343-6.597 54.755 20.653 11.849 29.618-7.973 64.087-35.155 66.445-12.665 37.987 10.137 31.161 33.464 20.535 12.606 45.689-45.456 33.058-72.682 35.504zm47.986-76.414c31.044-12.101 1.895-66.093-15.277-44.626 9.071 11.018-6.345 48.125 15.277 44.626zm-155.792 74.324c-25.965-23.217-6.042-65-16.353-95.847-9.626-21.364-4.725-58.238 19.666-47.287 5.843 30.889 39.679-21.59 62.118.697 43.141 22.48 22.287 84.491-13.871 103.411-1.845 14.79 41.824 15.17 22.455 37.216-27.71-13.256-47.744-29.054-70.133 3.78l-3.882-1.971zm26.31-42.01c5.445-2.887 32.559-21.397 33.14-38.35 15.793-53.518-50.497-52.715-46.581-5.465 3.597 12.834 1.468 39.12 13.44 43.815zm58.833-73.471c-2.557-3.463-.214 4.552 0 0zm184.089 114.676c-9.228-33.892 13.556-73.419-11.238-109.162-24.824-17.476 14.538-43.939 20.366-18.855 4.247 20.879 17.118-7.034 32.99-3.217 14.518-10.364 32.861 5.239 40.739 16.451 11.682 18.856 15.21 52.38 15.518 78.645 7.466 50.002-45.897 31.694-23.298-2.478 1.688-16.095 7.005-50.06-15.595-64.494-40.131-16.538-39.108 57.668-36.37 74.31 6.538 16.793-4.808 34.998-23.113 28.8zm92.744-10.22c-1.209-3.656-2.466 3.562 0 0zm597 9.967c-49.072-10.385-38.497-78.136-3.922-100.201 30.167-18.34-33.218-16.447-17.032-41.046 25.446-2.74 48.682 37.907 67.335-3.406 35.74-.085 18.487 53.654 23.609 78.44 3.762 22.372 17.001 72.204-14.411 65.437-8.585-30.657-31.826 12.127-55.579.776zm17.616-20.702c35.583-12.122 28.797-62.774 12.134-82.281-5.603 2.847-32.584 21.402-33.224 38.35-1.83 11.069 2.869 51.957 21.09 43.93zm-45.658-8.196c.01-4.635-2.69 3.268 0 0zm122.543 29.118c-20.102-22.369 20.074-66.334 5.223-100.049-.308-14.333-29.552-59.545 3.697-42.775 16.432 38.756 56.971-44.054 79.579 10.637 14.457 20.579 1.942 51.62-18.132 55.782-34.733-3.038 31.436-22.864 5.019-47.6-49.228-35.882-53.534 66.487-.76 55.088 33.605 2.511 52.389-30.463 48.695-59.984-11.077-42.096 42.617-16.141 20.731 14.724-11.597 29.113 22.703 104.495-15.779 102.768-19.661-15.185 11.489-79.336-28.869-52.627-15.709 12.209-63.313-5.939-47.573 19.85 23.147 13.288 38.192 59.59-.782 34.215-16.665-16.483-32.98-53.143-35.053-5.5-3.188 5.915-8.234 15.777-15.997 15.472zm28-41.628c-2.334-3.435-2.88 1.906 0 0zm-190.905 39.691c-11.91-7.761-48.246 8.816-56.079-18.25-13.319-24.626.674-55.068 17.792-67.239 35.856-.118 14.691-58.313-13.641-23.269-24.4-43.438 53.294-38.196 81.834-35.922 34.3 46.216-35.79 8.263-30.08 36.931-1.693 35.061-1.835 72.239 23.112 99.02 2.235 12.768-21.066 10.149-22.938 8.73zm-14.095-20.003c-7.189-16.718-1.735-71.837-28.884-37.674-5.95 18.594 2.711 44.582 28.884 37.674zm-101.5 16.341c-23.204-22.247 22.85-30.47 12.009-55.936-18.677-27.246-14.547-70.929 12.775-92.652 46.958 19.965-22.23 41.898 6.122 74 16.072 22.371 3.186 59.224-12.932 66.87-3.212 4.219-10.975 10.681-17.974 7.717zm16.957-6.519c-.365-4.925-3.188 3.327 0 0zm-47.452 5.934c-6.998-11.452-14.916-25.814-25.731-10.728-14.284 5.861-37.21 13.361-48.05-5.1-16.268-9.948-15.065-30.211-20.798-50.295-19.228-32.047 23.821-107.81 24.25-39.496-6.779 10.522-5.966 27.97-3.816 45.054 21.216 68.453 71.09-8.935 51.75-46.937-17.587-27.601 41.32-47.516 26.325-6.5-9.236 33.565-2.442 71.66 17.931 100.807-3.594 9.998-11.56 13.704-21.86 13.196zm-90.005-128.003c-1.209-3.656-2.466 3.562 0 0zm552.519 122.5c-11.222-25.296 28.788-15.657 32.084-36.334 23.415-38.981-7.817-76.388-31.771-92.563 24.504-38.496 79.277 34.302 63.165 68.896-4.191 20.159-11.1 26.93-20.692 42.099-8.828 7.84-11.03 16.97-26.111 18.09-6.997-.996-12.799 5.129-16.675-.189zm37.007-41.307c-4.35 1.188-1.933 2.83 0 0zm-1034.88-91.645c-10.537-14.128 12.853-29.2 19.123-24.934 17.086-7.733-7.306 39.905-19.123 24.934zm-240.913-5.5c-37.628-18.675 45.668-37.41 6.267-.872l-6.267.872z"/><path d="M1294.193 204.764c-20.693-45.197 61.934-15.602 0 0zm-253.75-4.158c-8.17-28.108 44.676-35.684 20.25-6.929-7.721 8.768-12.275 4.591-20.25 6.929zm-306.734-17.774c-16.421-41.166-47.544 26.71-81.565-8.833-22.221-25.88-18.817-73.377-6.771-97.038 18.343-23.445 49.031-33.052 75.538-37.512 38.353-4.253 26.034 44.164-7.239 24.883-38.891.06-63.643 46.98-45.979 78.668 21.558 26.905 36.837-26.79 29.341-42.708 24.413-22.132 31.919 29.446 42.055 45.218 36.448-20.065-2.327-109.427 55.122-126.279 18.457 20.393 22.347 20.564 42.808 2.777 55.136-14.128 71.364 53.049 55.202 92.852-2.971 21.478-37.048 39.401-60.75 45.538-23.531 17.651-69.699-22.555-24.576-22.193 38.584 9.44 74.606-32.629 62.343-68.994-5.602-38.859-54.517 4.041-28.191 30.266-23.557 30.051-37.02-18.12-43.725-36.994-39.738-2.122-1.732 101.378-51.747 119.961l-6.671 2.164-5.196-1.776zm-263.661-1.896c-38.266-20.971 30.514-45.516-4.456-77.333-14.503-24.469 4.075-52.986 16.364-63.049 25.548-18.844 28.921 20.938 6.736 31.543-8.03 27.828 23.461 48.73 6.47 78.424-3.246 10.735-11.21 37.924-25.115 30.415zm13.644-138.784c-3.068-3.545-.589 4.928 0 0zm-431.5 139.403c-40.171-5.052-61.578-59.881-43.986-94.501 5.572-12.565 10.722-24.504 23.909-35.343-.665-5.227 19-13.797 31.746-12.791 20.986 23.789-25.35 17.56-27.169 37.291-15.789 25.287-12.384 79.443 23.815 82.912 12.959-.233 7.013 32.327-8.315 22.432zm-20.007-99.833c-2.531-1.829-3.981 3.221 0 0zm60.449 99.02c-39.468-10.563-2.428-81.342-16.761-116.507-7.366-52.56 42.124-7.657 22.889 23.364-3.673 27.239 22.413 1.669 36.913 1.133 35.604 6.996 50.265-10.568 16.531-34.654-29-41.277 36.636-11.045 42.044 12.735-1.04 6.889 32.054-70.078 35.305-19.601-17.545 30.821-19.717 70.785-7.885 103.214 20.869 31.257-12.621 30.243-25.386 7.055-20.107 42.438-86.626 14.141-67.413-29.769-4.911-22.962 50.492-27.882 25.669-10.361-31.983 12.945 1.477 65.146 24.151 36.522 29.224-39.614-37.506-75.941-65.379-43.856-25.033 17.101-6.913 54.651-20.679 70.726zm102.058-109.031c-2.466-3.562-1.209 3.656 0 0zm172.329 105.115c-40.039-6.089-14.251-43.949 17.171-25.615-2.47-36.203 7.196-78.402-21.011-106.482-10.718-15.86 25.827-3.972 23.458-11.039 16.609-.202 49.343-6.597 54.755 20.653 11.849 29.618-7.973 64.087-35.155 66.445-12.665 37.987 10.137 31.161 33.464 20.535 12.606 45.689-45.456 33.058-72.682 35.504zm47.986-76.414c31.044-12.101 1.895-66.093-15.277-44.626 9.071 11.018-6.345 48.125 15.277 44.626zm-155.792 74.324c-25.965-23.217-6.042-65-16.353-95.847-9.626-21.364-4.725-58.238 19.666-47.287 5.843 30.889 39.679-21.59 62.118.697 43.141 22.48 22.287 84.491-13.871 103.411-1.845 14.79 41.824 15.17 22.455 37.216-27.71-13.256-47.744-29.054-70.133 3.78l-3.882-1.971zm26.31-42.01c5.445-2.887 32.559-21.397 33.14-38.35 15.793-53.518-50.497-52.715-46.581-5.465 3.597 12.834 1.468 39.12 13.44 43.815zm58.833-73.471c-2.557-3.463-.214 4.552 0 0zm184.089 114.676c-9.228-33.892 13.556-73.419-11.238-109.162-24.824-17.476 14.538-43.939 20.366-18.855 4.247 20.879 17.118-7.034 32.99-3.217 14.518-10.364 32.861 5.239 40.739 16.451 11.682 18.856 15.21 52.38 15.518 78.645 7.466 50.002-45.897 31.694-23.298-2.478 1.688-16.095 7.005-50.06-15.595-64.494-40.131-16.538-39.108 57.668-36.37 74.31 6.538 16.793-4.808 34.998-23.113 28.8zm92.744-10.22c-1.209-3.656-2.466 3.562 0 0zm597 9.967c-49.072-10.385-38.497-78.136-3.922-100.201 30.167-18.34-33.218-16.447-17.032-41.046 25.446-2.74 48.682 37.907 67.335-3.406 35.74-.085 18.487 53.654 23.609 78.44 3.762 22.372 17.001 72.204-14.411 65.437-8.585-30.657-31.826 12.127-55.579.776zm17.616-20.702c35.583-12.122 28.797-62.774 12.134-82.281-5.603 2.847-32.584 21.402-33.224 38.35-1.83 11.069 2.869 51.957 21.09 43.93zm-45.658-8.196c.01-4.635-2.69 3.268 0 0zm122.543 29.118c-20.102-22.369 20.074-66.334 5.223-100.049-.308-14.333-29.552-59.545 3.697-42.775 16.432 38.756 56.971-44.054 79.579 10.637 14.457 20.579 1.942 51.62-18.132 55.782-34.733-3.038 31.436-22.864 5.019-47.6-49.228-35.882-53.534 66.487-.76 55.088 33.605 2.511 52.389-30.463 48.695-59.984-11.077-42.096 42.617-16.141 20.731 14.724-11.597 29.113 22.703 104.495-15.779 102.768-19.661-15.185 11.489-79.336-28.869-52.627-15.709 12.209-63.313-5.939-47.573 19.85 23.147 13.288 38.192 59.59-.782 34.215-16.665-16.483-32.98-53.143-35.053-5.5-3.188 5.915-8.234 15.777-15.997 15.472zm28-41.628c-2.334-3.435-2.88 1.906 0 0zm-190.905 39.691c-11.91-7.761-48.246 8.816-56.079-18.25-13.319-24.626.674-55.068 17.792-67.239 35.856-.118 14.691-58.313-13.641-23.269-24.4-43.438 53.294-38.196 81.834-35.922 34.3 46.216-35.79 8.263-30.08 36.931-1.693 35.061-1.835 72.239 23.112 99.02 2.235 12.768-21.066 10.149-22.938 8.73zm-14.095-20.003c-7.189-16.718-1.735-71.837-28.884-37.674-5.95 18.594 2.711 44.582 28.884 37.674zm-101.5 16.341c-23.204-22.247 22.85-30.47 12.009-55.936-18.677-27.246-14.547-70.929 12.775-92.652 46.958 19.965-22.23 41.898 6.122 74 16.072 22.371 3.186 59.224-12.932 66.87-3.212 4.219-10.975 10.681-17.974 7.717zm16.957-6.519c-.365-4.925-3.188 3.327 0 0zm-47.452 5.934c-6.998-11.452-14.916-25.814-25.731-10.728-14.284 5.861-37.21 13.361-48.05-5.1-16.268-9.948-15.065-30.211-20.798-50.295-19.228-32.047 23.821-107.81 24.25-39.496-6.779 10.522-5.966 27.97-3.816 45.054 21.216 68.453 71.09-8.935 51.75-46.937-17.587-27.601 41.32-47.516 26.325-6.5-9.236 33.565-2.442 71.66 17.931 100.807-3.594 9.998-11.56 13.704-21.86 13.196zm-90.005-128.003c-1.209-3.656-2.466 3.562 0 0zm552.519 122.5c-11.222-25.296 28.788-15.657 32.084-36.334 23.415-38.981-7.817-76.388-31.771-92.563 24.504-38.496 79.277 34.302 63.165 68.896-4.191 20.159-11.1 26.93-20.692 42.099-8.828 7.84-11.03 16.97-26.111 18.09-6.997-.996-12.799 5.129-16.675-.189zm37.007-41.307c-4.35 1.188-1.933 2.83 0 0zm-1034.88-91.645c-10.537-14.128 12.853-29.2 19.123-24.934 17.086-7.733-7.306 39.905-19.123 24.934zm-240.913-5.5c-37.628-18.675 45.668-37.41 6.267-.872l-6.267.872z" fill="url(#a)"/><path d="M1290.193 200.764c-20.693-45.197 61.934-15.602 0 0zm-253.75-4.158c-8.17-28.108 44.676-35.684 20.25-6.929-7.721 8.768-12.275 4.591-20.25 6.929zm-306.734-17.774c-16.421-41.166-47.544 26.71-81.565-8.833-22.221-25.88-18.817-73.377-6.771-97.038 18.343-23.445 49.031-33.052 75.538-37.512 38.353-4.253 26.034 44.164-7.239 24.883-38.891.06-63.643 46.98-45.979 78.668 21.558 26.905 36.837-26.79 29.341-42.708 24.413-22.132 31.919 29.446 42.055 45.218 36.448-20.065-2.327-109.427 55.122-126.279 18.457 20.393 22.347 20.564 42.808 2.777 55.136-14.128 71.364 53.049 55.202 92.852-2.971 21.478-37.048 39.401-60.75 45.538-23.531 17.651-69.699-22.555-24.576-22.193 38.584 9.44 74.606-32.629 62.343-68.994-5.602-38.859-54.517 4.041-28.191 30.266-23.557 30.051-37.02-18.12-43.725-36.994-39.738-2.122-1.732 101.378-51.747 119.961l-6.671 2.164-5.196-1.776zm-263.661-1.896c-38.266-20.971 30.514-45.516-4.456-77.333-14.503-24.469 4.075-52.986 16.364-63.049 25.548-18.844 28.921 20.938 6.736 31.543-8.03 27.828 23.461 48.73 6.47 78.424-3.246 10.735-11.21 37.924-25.115 30.415zm13.644-138.784c-3.068-3.545-.589 4.928 0 0zm-431.5 139.403c-40.171-5.052-61.578-59.881-43.986-94.501 5.572-12.565 10.722-24.504 23.909-35.343-.665-5.227 19-13.797 31.746-12.791 20.986 23.789-25.35 17.56-27.169 37.291-15.789 25.287-12.384 79.443 23.815 82.912 12.959-.233 7.013 32.327-8.315 22.432zm-20.007-99.833c-2.531-1.829-3.981 3.221 0 0zm60.449 99.02c-39.468-10.563-2.428-81.342-16.761-116.507-7.366-52.56 42.124-7.657 22.889 23.364-3.673 27.239 22.413 1.669 36.913 1.133 35.604 6.996 50.265-10.568 16.531-34.654-29-41.277 36.636-11.045 42.044 12.735-1.04 6.889 32.054-70.078 35.305-19.601-17.545 30.821-19.717 70.785-7.885 103.214 20.869 31.257-12.621 30.243-25.386 7.055-20.107 42.438-86.626 14.141-67.413-29.769-4.911-22.962 50.492-27.882 25.669-10.361-31.983 12.945 1.477 65.146 24.151 36.522 29.224-39.614-37.506-75.941-65.379-43.856-25.033 17.101-6.913 54.651-20.679 70.726zm102.058-109.031c-2.466-3.562-1.209 3.656 0 0zm172.329 105.115c-40.039-6.089-14.251-43.949 17.171-25.615-2.47-36.203 7.196-78.402-21.011-106.482-10.718-15.86 25.827-3.972 23.458-11.039 16.609-.202 49.343-6.597 54.755 20.653 11.849 29.618-7.973 64.087-35.155 66.445-12.665 37.987 10.137 31.161 33.464 20.535 12.606 45.689-45.456 33.058-72.682 35.504zm47.986-76.414c31.044-12.101 1.895-66.093-15.277-44.626 9.071 11.018-6.345 48.125 15.277 44.626zm-155.792 74.324c-25.965-23.217-6.042-65-16.353-95.847-9.626-21.364-4.725-58.238 19.666-47.287 5.843 30.889 39.679-21.59 62.118.697 43.141 22.48 22.287 84.491-13.871 103.411-1.845 14.79 41.824 15.17 22.455 37.216-27.71-13.256-47.744-29.054-70.133 3.78l-3.882-1.971zm26.31-42.01c5.445-2.887 32.559-21.397 33.14-38.35 15.793-53.518-50.497-52.715-46.581-5.465 3.597 12.834 1.468 39.12 13.44 43.815zm58.833-73.471c-2.557-3.463-.214 4.552 0 0zm184.089 114.676c-9.228-33.892 13.556-73.419-11.238-109.162-24.824-17.476 14.538-43.939 20.366-18.855 4.247 20.879 17.118-7.034 32.99-3.217 14.518-10.364 32.861 5.239 40.739 16.451 11.682 18.856 15.21 52.38 15.518 78.645 7.466 50.002-45.897 31.694-23.298-2.478 1.688-16.095 7.005-50.06-15.595-64.494-40.131-16.538-39.108 57.668-36.37 74.31 6.538 16.793-4.808 34.998-23.113 28.8zm92.744-10.22c-1.209-3.656-2.466 3.562 0 0zm597 9.967c-49.072-10.385-38.497-78.136-3.922-100.201 30.167-18.34-33.218-16.447-17.032-41.046 25.446-2.74 48.682 37.907 67.335-3.406 35.74-.085 18.487 53.654 23.609 78.44 3.762 22.372 17.001 72.204-14.411 65.437-8.585-30.657-31.826 12.127-55.579.776zm17.616-20.702c35.583-12.122 28.797-62.774 12.134-82.281-5.603 2.847-32.584 21.402-33.224 38.35-1.83 11.069 2.869 51.957 21.09 43.93zm-45.658-8.196c.01-4.635-2.69 3.268 0 0zm122.543 29.118c-20.102-22.369 20.074-66.334 5.223-100.049-.308-14.333-29.552-59.545 3.697-42.775 16.432 38.756 56.971-44.054 79.579 10.637 14.457 20.579 1.942 51.62-18.132 55.782-34.733-3.038 31.436-22.864 5.019-47.6-49.228-35.882-53.534 66.487-.76 55.088 33.605 2.511 52.389-30.463 48.695-59.984-11.077-42.096 42.617-16.141 20.731 14.724-11.597 29.113 22.703 104.495-15.779 102.768-19.661-15.185 11.489-79.336-28.869-52.627-15.709 12.209-63.313-5.939-47.573 19.85 23.147 13.288 38.192 59.59-.782 34.215-16.665-16.483-32.98-53.143-35.053-5.5-3.188 5.915-8.234 15.777-15.997 15.472zm28-41.628c-2.334-3.435-2.88 1.906 0 0zm-190.905 39.691c-11.91-7.761-48.246 8.816-56.079-18.25-13.319-24.626.674-55.068 17.792-67.239 35.856-.118 14.691-58.313-13.641-23.269-24.4-43.438 53.294-38.196 81.834-35.922 34.3 46.216-35.79 8.263-30.08 36.931-1.693 35.061-1.835 72.239 23.112 99.02 2.235 12.768-21.066 10.149-22.938 8.73zm-14.095-20.003c-7.189-16.718-1.735-71.837-28.884-37.674-5.95 18.594 2.711 44.582 28.884 37.674zm-101.5 16.341c-23.204-22.247 22.85-30.47 12.009-55.936-18.677-27.246-14.547-70.929 12.775-92.652 46.958 19.965-22.23 41.898 6.122 74 16.072 22.371 3.186 59.224-12.932 66.87-3.212 4.219-10.975 10.681-17.974 7.717zm16.957-6.519c-.365-4.925-3.188 3.327 0 0zm-47.452 5.934c-6.998-11.452-14.916-25.814-25.731-10.728-14.284 5.861-37.21 13.361-48.05-5.1-16.268-9.948-15.065-30.211-20.798-50.295-19.228-32.047 23.821-107.81 24.25-39.496-6.779 10.522-5.966 27.97-3.816 45.054 21.216 68.453 71.09-8.935 51.75-46.937-17.587-27.601 41.32-47.516 26.325-6.5-9.236 33.565-2.442 71.66 17.931 100.807-3.594 9.998-11.56 13.704-21.86 13.196zm-90.005-128.003c-1.209-3.656-2.466 3.562 0 0zm552.519 122.5c-11.222-25.296 28.788-15.657 32.084-36.334 23.415-38.981-7.817-76.388-31.771-92.563 24.504-38.496 79.277 34.302 63.165 68.896-4.191 20.159-11.1 26.93-20.692 42.099-8.828 7.84-11.03 16.97-26.111 18.09-6.997-.996-12.799 5.129-16.675-.189zm37.007-41.307c-4.35 1.188-1.933 2.83 0 0zm-1034.88-91.645c-10.537-14.128 12.853-29.2 19.123-24.934 17.086-7.733-7.306 39.905-19.123 24.934zm-240.913-5.5c-37.628-18.675 45.668-37.41 6.267-.872l-6.267.872z" fill="url(#b)"/></svg>